<?xml version="1.0" encoding="UTF-8" standalone="no"?>
<!DOCTYPE svg PUBLIC "-//W3C//DTD SVG 1.1//EN" "http://www.w3.org/Graphics/SVG/1.1/DTD/svg11.dtd">
<svg width="100%" height="100%" viewBox="0 0 3508 2481" version="1.1" xmlns="http://www.w3.org/2000/svg" xmlns:xlink="http://www.w3.org/1999/xlink" xml:space="preserve" xmlns:serif="http://www.serif.com/" style="fill-rule:evenodd;clip-rule:evenodd;stroke-linejoin:round;stroke-miterlimit:2;">
    <g transform="matrix(5.56067,0,0,6.29149,-1740.09,-837.131)">
        <path d="M799.388,307.337L807.699,315.541L823.379,298.739L818.356,291.696L799.388,307.337Z"/>
    </g>
    <g transform="matrix(8.87382,0,0,8.28526,-6957.5,-1342.24)">
        <path d="M827.936,259.899L825.951,280.268L835.811,280.471L839.433,260.883L827.936,259.899Z"/>
    </g>
    <g transform="matrix(5.97231,-0.93738,0.828342,7.48111,-2623.51,-250.559)">
        <path d="M827.936,259.899C827.672,266.863 827.241,273.418 825.662,277.188L829.121,284.298L837.045,282.011L839.438,260.947L827.936,259.899Z"/>
    </g>
    <g transform="matrix(6.11801,-0.930639,0.854698,7.48111,-2336.84,-277.866)">
        <path d="M827.936,259.899C827.737,265.742 827.687,273.554 825.636,278.914L828.338,284.83L836.956,283.131L839.273,261.874L827.936,259.899Z"/>
    </g>
    <g transform="matrix(6.40109,0,0,11.2554,-3223.65,-2127.46)">
        <path d="M827.936,259.899L827.366,278.853L836.999,276.523L839.405,259.772L827.936,259.899Z"/>
    </g>
    <g transform="matrix(6.01376,0,0,11.6725,-3642.13,-2202.97)">
        <path d="M827.936,259.899L826.977,289.074L838.557,287.787L839.405,259.772L827.936,259.899Z"/>
    </g>
    <g transform="matrix(6.68968,0,0,8.43686,-3637.67,-1420.51)">
        <path d="M827.936,259.899L828.719,306.363L813.445,305.838L813.128,311.809L834.191,315.644L839.191,312.223L839.307,259.577L827.936,259.899Z"/>
    </g>
    <g transform="matrix(7.6826,0,0,8.28526,-5715.25,-1106.42)">
        <path d="M828.085,260.349L829.023,277.245L812.071,277.792L812.058,286.295L835.016,287.706L840.777,284.058L839.307,259.577L828.085,260.349Z"/>
    </g>
    <g transform="matrix(6.2153,0,0,8.27739,-2332.83,-1386.97)">
        <path d="M827.936,259.899L826.873,307.891L816.323,307.391L815.781,314.201L835.306,315.987L838.461,313.264L839.307,259.577L827.936,259.899Z"/>
    </g>
    <g transform="matrix(6.40109,0,0,8.43686,-3205.31,-1370.62)">
        <path d="M816.299,270.193L819.401,277.04C828.172,274.619 836.506,272.198 845.932,271.486L846.013,264.423L816.299,270.193Z"/>
    </g>
    <g transform="matrix(5.5167,0.924103,-1.00337,8.49087,-1694.14,-2123.55)">
        <path d="M821.371,269.498L823.655,275.882L845.608,270.334L845.284,263.162L821.371,269.498Z"/>
    </g>
    <g transform="matrix(5.69223,0.924103,-1.0353,8.49087,-1414.48,-2140.51)">
        <path d="M821.318,269.635L823.602,276.02L845.608,270.334L845.284,263.162L821.318,269.635Z"/>
    </g>
    <g transform="matrix(6.78255,0,0,8.43686,-3543.82,-1335.91)">
        <path d="M820.13,278.875L844.141,272.559L849.036,278.037C846.704,282.775 842.649,288.139 841.375,293.48C833.486,295.071 828.38,296.202 823.183,299.136L818.512,293.562L820.449,291.987L820.13,278.875ZM828.31,282.906L829.013,288.4L834.646,287.365L838.682,281.687L837.444,280.796L828.31,282.906Z"/>
    </g>
    <g transform="matrix(6.78071,0,0,8.43686,-5247.77,103.816)">
        <path d="M1109.83,81.528L1119.59,77.387L1129.53,83.935L1126.83,88.174L1128.12,128.501L1124.3,133.217C1116.07,130.984 1104.39,127.587 1101.69,126.779L1103.88,118.986L1117.99,121.432L1117.44,87.869L1111.13,89.293C1111.14,89.357 1111.13,89.229 1111.13,89.293L1109.83,81.528Z"/>
    </g>
    <g transform="matrix(5.57103,0,0,7.54584,-3551.11,402.812)">
        <path d="M1101.06,81.654L1119.59,77.387L1129.53,83.935L1126.83,88.174L1121.48,106.72L1115.43,110.346L1092,102.936L1094.19,95.143L1110.9,97.711L1114.26,87.489L1102.36,89.418C1102.37,89.483 1102.36,89.354 1102.36,89.418L1101.06,81.654Z"/>
    </g>
    <g transform="matrix(5.74829,0,0,7.54584,-3330.53,381.07)">
        <path d="M1098.82,83.253L1119.76,79.914L1129.7,86.462L1127,90.701L1120.27,111.596L1114.23,115.223L1084.34,104.25L1088.66,97.249L1110.3,102.399L1114.53,90.37L1100.12,91.018C1100.13,91.082 1100.12,90.954 1100.12,91.018L1098.82,83.253Z"/>
    </g>
    <g transform="matrix(6.78071,0,0,8.43686,-5247.77,103.816)">
        <path d="M1104.72,122.96C1101.86,128.575 1098.21,133.654 1094.07,138.903L1082.32,135.987C1100,117.911 1103.91,109.452 1101.62,83.143L1106.76,80.3L1109.83,81.528L1109.91,81.495L1111.13,89.293C1111.72,101.865 1109.88,111.272 1106.4,119.375L1105.82,119.272L1104.72,122.96Z"/>
    </g>
    <g transform="matrix(6.78071,0,0,8.43686,-3540.68,-1451.43)">
        <path d="M856.391,279.704L867.659,276.255L868.004,283.37L857.541,285.395L856.391,279.704Z"/>
    </g>
    <g transform="matrix(8.9962,0,0,9.81647,-5463.73,-1737.09)">
        <path d="M856.391,279.704L867.659,276.255L868.004,283.37L857.541,285.395L856.391,279.704Z"/>
    </g>
    <g transform="matrix(6.70125,2.62455,-2.428,7.41561,-3615.6,-3561.47)">
        <path d="M908.919,265.681L903.543,275.88L917.555,280.519L922.328,273.787L908.919,265.681Z"/>
    </g>
    <g transform="matrix(5.67455,2.2505,-2.25582,6.97674,-1785.27,-3089.33)">
        <path d="M908.919,265.681L903.543,275.88L914.641,278.677L919.414,271.945L908.919,265.681Z"/>
    </g>
    <g transform="matrix(6.07219,-2.4807,3.35683,7.04401,-4476.6,1378.49)">
        <path d="M908.919,265.681L904.441,274.486L914.622,277.675L917.738,271.592L908.919,265.681Z"/>
    </g>
    <g transform="matrix(5.67455,2.2505,-2.25582,6.97674,-1659.66,-2927.92)">
        <path d="M909.439,268.138L903.543,275.88L918.699,283.075L922.802,274.522L909.439,268.138Z"/>
    </g>
    <g transform="matrix(9.75724,0,0,8.28526,-8495.43,-1376.9)">
        <path d="M931.911,260.382L935.968,269.349L946.476,266.922L944.346,256.419L931.911,260.382Z"/>
    </g>
    <g transform="matrix(8.86677,0.22783,-0.254289,8.63445,-7720.36,-1472.49)">
        <path d="M917.99,272L921.607,281.371C936.697,276.23 974.29,272.524 991.362,270.686L987.768,261.053L917.99,272Z"/>
    </g>
    <g transform="matrix(8.54465,0.124229,-0.148013,8.23321,-6726.42,-1165.13)">
        <path d="M917.99,272L921.607,281.371C936.697,276.23 974.29,272.524 991.362,270.686L987.768,261.053L917.99,272Z"/>
    </g>
    <g transform="matrix(7.69643,0.433312,-0.429667,8.2222,-5841.45,-1558)">
        <path d="M917.99,272L921.607,281.371C936.697,276.23 968.627,272.83 985.699,270.992L982.105,261.358L917.99,272Z"/>
    </g>
    <g transform="matrix(8.93287,0,0,7.4816,-7748.63,-1170.9)">
        <path d="M915.144,269.574L918.76,278.944C937.997,274.706 966.264,273.182 966.264,273.182L965.241,284.054L976.403,284.224L976.7,268.754L968.076,263.091L915.144,269.574Z"/>
    </g>
    <g transform="matrix(5.44869,0,0,7.52077,-3240.92,-1077.68)">
        <path d="M917.99,272L922.147,283.031C937.44,276.765 950.233,273.074 967.304,271.236L962.86,262.167L917.99,272Z"/>
    </g>
    <g transform="matrix(5.06232,0,0,7.07567,-1950.51,-971.879)">
        <path d="M921.947,269.185L926.104,280.216C941.397,273.95 949.987,273.904 967.059,272.066L965.132,262.325L921.947,269.185Z"/>
    </g>
    <g transform="matrix(1.93114,6.90956,-6.59228,2.20393,2013.86,-6393.05)">
        <path d="M949.079,275.845L956.006,287.721L963.129,283.011L954.315,271.936L949.079,275.845Z"/>
    </g>
    <g transform="matrix(1.85506,6.50063,-6.33254,2.07349,2923.78,-5972.67)">
        <path d="M950.459,278.082L956.741,288.733L963.865,284.023L956.734,274.858L950.459,278.082Z"/>
    </g>
    <g transform="matrix(7.71405,0,0,8.43686,-5291.43,-1494.82)">
        <path d="M930.733,293.649L917.296,307.939L923.941,313.158L937.698,298.376L930.733,293.649Z"/>
    </g>
    <g transform="matrix(4.22087,0,0,6.63136,-143.065,-1700.67)">
        <path d="M635.795,377.355L640.029,388.914L664.044,383.357L656.556,400.632L673.567,401.06L680.383,382.76L683.555,377.764L672.176,371.931C658.132,374.888 648.036,376.675 635.795,377.355Z"/>
    </g>
    <g transform="matrix(4.72019,0,0,6.91704,-2483,-1655.29)">
        <path d="M628.605,376.38L632.839,387.94L679.871,382.278L664.247,392.009L679.325,396.421L701.184,381.639L704.356,376.643L690.623,370.435C676.578,373.392 640.846,375.7 628.605,376.38Z"/>
    </g>
    <g transform="matrix(4.35516,0,0,6.63136,185.944,-1722.41)">
        <path d="M637.459,376.366L641.734,388.25L664.206,383.539L658.847,402.173L673.345,402.727L681.223,383.359L684.192,378.755L673.188,371.493C663.956,373.863 649.596,375.604 637.459,376.366Z"/>
    </g>
    <g transform="matrix(7.92635,0,0,8.74951,-6836.19,-1491.48)">
        <path d="M1009.1,262.908L1057.02,256.95L1064.98,262.195L1065.55,285.597L1056.39,285.845L1056.05,283.942L1015.41,287.789L1008.97,289.726L1004.67,285.958L1009.1,262.908ZM1015.7,278.315L1014.61,281.51L1055.45,277.243L1055.04,274.936L1015.7,278.315ZM1018.1,269.144L1016.49,272.665L1055.87,267.984L1053.03,265.558L1018.1,269.144Z"/>
    </g>
</svg>
